<?xml version="1.0" encoding="UTF-8"?>
<!DOCTYPE svg PUBLIC "-//W3C//DTD SVG 1.1//EN" "http://www.w3.org/Graphics/SVG/1.1/DTD/svg11.dtd">
<svg xmlns="http://www.w3.org/2000/svg" version="1.1" width="188px" height="197px" style="shape-rendering:geometricPrecision; text-rendering:geometricPrecision; image-rendering:optimizeQuality; fill-rule:evenodd; clip-rule:evenodd" xmlns:xlink="http://www.w3.org/1999/xlink">
<g><path style="opacity:0.976" fill="#000000" d="M 169.5,-0.5 C 173.5,-0.5 177.5,-0.5 181.5,-0.5C 184.2,1.23438 186.2,3.56772 187.5,6.5C 187.5,8.83333 187.5,11.1667 187.5,13.5C 182.494,55.3458 164.827,90.8458 134.5,120C 131.667,122.167 128.833,124.333 126,126.5C 127.734,135.829 126.068,144.495 121,152.5C 115.319,158.348 109.485,164.015 103.5,169.5C 102.522,169.023 101.689,168.357 101,167.5C 98.1036,160.042 94.937,152.708 91.5,145.5C 83.6657,148.623 75.6657,150.79 67.5,152C 56.9707,141.137 46.1374,130.637 35,120.5C 34.3333,118.5 34.3333,116.5 35,114.5C 36.9092,107.796 38.5759,101.129 40,94.5C 32.9059,91.3709 25.7392,88.3709 18.5,85.5C 17.3861,84.277 17.2195,82.9437 18,81.5C 24.1975,74.9679 30.6975,68.8013 37.5,63C 39.5,62.3333 41.5,61.6667 43.5,61C 49.1958,60.8299 54.8624,60.3299 60.5,59.5C 80.6755,34.069 106.342,16.569 137.5,7C 148.22,4.15125 158.887,1.65125 169.5,-0.5 Z M 120.5,44.5 C 136.088,44.3337 142.921,52.0003 141,67.5C 134.223,80.2018 124.723,82.7018 112.5,75C 105.766,67.0724 105.266,58.9057 111,50.5C 113.843,47.8373 117.009,45.8373 120.5,44.5 Z"/></g>
<g><path style="opacity:0.949" fill="#000000" d="M -0.5,189.5 C -0.5,184.5 -0.5,179.5 -0.5,174.5C 2.17255,167.016 6.50589,160.516 12.5,155C 8.17371,153.71 3.84038,153.21 -0.5,153.5C -0.5,151.833 -0.5,150.167 -0.5,148.5C 3.92338,139.078 11.2567,133.411 21.5,131.5C 27.393,132.121 32.393,134.455 36.5,138.5C 30.9155,143.664 28.0822,149.997 28,157.5C 31.1743,158.728 34.341,158.561 37.5,157C 41.1002,154.952 44.6002,152.786 48,150.5C 50.1171,152.032 51.7838,154.032 53,156.5C 57.5932,168.827 53.7599,177.66 41.5,183C 27.7481,184.099 15.0815,188.266 3.5,195.5C 2.55805,195.392 1.72472,195.059 1,194.5C 0.801916,192.618 0.301916,190.952 -0.5,189.5 Z"/></g>
</svg>
