<?xml version="1.0" standalone="no"?>
<svg xmlns:xlink="http://www.w3.org/1999/xlink" id="wave" style="transform:rotate(0deg); transition: 0.3s" viewBox="0 0 1440 250" version="1.1" xmlns="http://www.w3.org/2000/svg"><defs><linearGradient id="sw-gradient-0" x1="0" x2="0" y1="1" y2="0"><stop stop-color="rgba(255, 255, 255, 0.98)" offset="0%"/><stop stop-color="rgba(255, 255, 255, 1)" offset="100%"/></linearGradient></defs><path style="transform:translate(0, 0px); opacity:1" fill="url(#sw-gradient-0)" d="M0,150L26.7,150C53.3,150,107,150,160,129.2C213.3,108,267,67,320,79.2C373.3,92,427,158,480,170.8C533.3,183,587,142,640,125C693.3,108,747,117,800,129.2C853.3,142,907,158,960,145.8C1013.3,133,1067,92,1120,95.8C1173.3,100,1227,150,1280,141.7C1333.3,133,1387,67,1440,58.3C1493.3,50,1547,100,1600,125C1653.3,150,1707,150,1760,125C1813.3,100,1867,50,1920,41.7C1973.3,33,2027,67,2080,83.3C2133.3,100,2187,100,2240,120.8C2293.3,142,2347,183,2400,200C2453.3,217,2507,208,2560,183.3C2613.3,158,2667,117,2720,108.3C2773.3,100,2827,125,2880,133.3C2933.3,142,2987,133,3040,116.7C3093.3,100,3147,75,3200,58.3C3253.3,42,3307,33,3360,41.7C3413.3,50,3467,75,3520,108.3C3573.3,142,3627,183,3680,170.8C3733.3,158,3787,92,3813,58.3L3840,25L3840,250L3813.3,250C3786.7,250,3733,250,3680,250C3626.7,250,3573,250,3520,250C3466.7,250,3413,250,3360,250C3306.7,250,3253,250,3200,250C3146.7,250,3093,250,3040,250C2986.7,250,2933,250,2880,250C2826.7,250,2773,250,2720,250C2666.7,250,2613,250,2560,250C2506.7,250,2453,250,2400,250C2346.7,250,2293,250,2240,250C2186.7,250,2133,250,2080,250C2026.7,250,1973,250,1920,250C1866.7,250,1813,250,1760,250C1706.7,250,1653,250,1600,250C1546.7,250,1493,250,1440,250C1386.7,250,1333,250,1280,250C1226.7,250,1173,250,1120,250C1066.7,250,1013,250,960,250C906.7,250,853,250,800,250C746.7,250,693,250,640,250C586.7,250,533,250,480,250C426.7,250,373,250,320,250C266.7,250,213,250,160,250C106.7,250,53,250,27,250L0,250Z"/></svg>